<svg id="Layer_5" enable-background="new 0 0 64 64" height="512" viewBox="0 0 64 64" width="512" xmlns="http://www.w3.org/2000/svg"><g><g><g><path d="m9 54h-6v-1.66c0-2.04.37-4.02 1.05-5.85.63-1.67 1.51-3.21 2.6-4.59 1.7-2.14 3.93-3.87 6.52-4.97l.05.5c.14 1.55.4 3.07.76 4.57.95 3.94 2.65 7.68 5.02 11v9h-10z" fill="#fcd770"/></g><g><path d="m37.47 62h-18.47v-9c2.37-3.32 4.07-7.06 5.02-11 .36-1.5.62-3.02.76-4.57l.09-1.02c4.52.86 8.26 3.72 10.35 7.59h-3.22c-1.1 0-2 .9-2 2 0 .55.22 1.05.59 1.41.36.37.86.59 1.41.59l1.51 10.57c.28 1.97 1.97 3.43 3.96 3.43z" fill="#fcd770"/></g><g><path d="m13.17 36.93c-2.59 1.1-4.82 2.83-6.52 4.97-1.09 1.38-1.97 2.92-2.6 4.59l-.45-.34c-1.01-.76-1.6-1.94-1.6-3.2v-.06c0-1.22.57-2.37 1.55-3.1.42-.31.86-.65 1.25-.94.76-.57 1.2-1.46 1.2-2.4s-.44-1.83-1.2-2.4l-.81-.61c-1.25-.94-1.99-2.41-1.99-3.98 0-.99.29-1.95.84-2.77l.32-.48c.55-.82.84-1.79.84-2.77v-8.21c0-4.02 3.26-7.28 7.28-7.28 1.05 0 2.08.23 3.03.66l.01.01c-3.82 2.64-6.32 7.05-6.32 12.05 0 2.31.54 4.55 1.55 6.55 1 2.02 2.47 3.8 4.32 5.18l2.13 1.6v2c-.98.23-1.93.54-2.83.93z" fill="#656d78"/></g><g><path d="m20.18 14h-.01-1.17c-1.66 0-3 1.34-3 3v3h-.67c-1.84 0-3.33 1.49-3.33 3.33 0 1.05.49 2.04 1.33 2.67l2.67 2v6l-2.13-1.6c-1.85-1.38-3.32-3.16-4.32-5.18-1.01-2-1.55-4.24-1.55-6.55 0-5 2.5-9.41 6.32-12.05 2.37-1.66 5.25-2.62 8.35-2.62h3.33c1.38 0 2.63.56 3.54 1.46.9.91 1.46 2.16 1.46 3.54 0 1.57-.73 2.97-1.86 3.89-.86.69-1.95 1.11-3.14 1.11-1.03 0-2.07 0-3 0-1.31 0-2.41-.83-2.82-2z" fill="#656d78"/></g><g><path d="m32 48 1.51 10.57c.28 1.97 1.97 3.43 3.96 3.43h.53 4 4 4 4 .53c1.99 0 3.68-1.46 3.96-3.43l1.51-10.57z" fill="#dfb28b"/></g><g><path d="m55.6 52.8c.32.43.46.95.38 1.48s-.35 1-.78 1.32c-.35.26-.76.4-1.2.4-.63 0-1.23-.3-1.6-.8l-4.33-5.78c1.16-.7 1.93-1.97 1.93-3.42 0-.26-.03-.52-.07-.76l2.08 2.78z" fill="#e6e9ed"/></g><g><path d="m62 7.69c0 .2-.01.41-.03.62l-1.41 12.63c-.32 2.88-2.75 5.06-5.65 5.06h-2.91l-3.59 3.59c-.26.26-.62.41-1 .41-.78 0-1.41-.63-1.41-1.41v-2.59h-2.91c-2.9 0-5.33-2.18-5.65-5.06l-1.41-12.63c-.02-.21-.03-.42-.03-.62 0-3.14 2.55-5.69 5.69-5.69h14.62c1.57 0 2.99.64 4.02 1.67s1.67 2.45 1.67 4.02z" fill="#e6e9ed"/></g><g><circle cx="60" cy="36" fill="#ff826e" r="2"/></g><g><path d="m61.41 44.59c.37.36.59.86.59 1.41 0 1.1-.9 2-2 2h-7.97l-.02.02-2.08-2.78c0-.01 0-.01-.01-.01-.08-.44-.24-.85-.46-1.23h10.54c.55 0 1.05.22 1.41.59z" fill="#ff826e"/></g><g><circle cx="52" cy="36" fill="#ff826e" r="2"/></g><g><path d="m49.46 44c.22.38.38.79.46 1.23.01 0 .01 0 .01.01.04.24.07.5.07.76 0 1.45-.77 2.72-1.93 3.42-.61.37-1.31.58-2.07.58s-1.46-.21-2.07-.58c-1.16-.7-1.93-1.97-1.93-3.42 0-.26.03-.52.07-.76 0-.01 0-.01.01-.01.08-.44.24-.85.46-1.23.69-1.2 1.98-2 3.46-2s2.77.8 3.46 2z" fill="#aab2bd"/></g><g><circle cx="44" cy="36" fill="#ff826e" r="2"/></g><g><path d="m43.93 49.42-4.33 5.78c-.37.5-.97.8-1.6.8-.44 0-.85-.14-1.2-.4-.43-.32-.7-.79-.78-1.32s.06-1.05.38-1.48l3.59-4.78 2.08-2.78c-.04.24-.07.5-.07.76 0 1.45.77 2.72 1.93 3.42z" fill="#e6e9ed"/></g><g><path d="m35.22 44h7.32c-.22.38-.38.79-.46 1.23-.01 0-.01 0-.01.01l-2.08 2.78-.02-.02h-7.97c-.55 0-1.05-.22-1.41-.59-.37-.36-.59-.86-.59-1.41 0-1.1.9-2 2-2z" fill="#ff826e"/></g><g><path d="m31.65 21.48c.23.34.35.74.35 1.14 0 .85-.48 1.62-1.23 2l-.77.38v3c0 2.21-1.79 4-4 4h-4v3 1l2.05.27c.28.04.55.08.82.14l-.09 1.02c-.14 1.55-.4 3.07-.76 4.57h-10.04c-.36-1.5-.62-3.02-.76-4.57l-.05-.5c.9-.39 1.85-.7 2.83-.93v-2-6l-2.67-2c-.84-.63-1.33-1.62-1.33-2.67 0-1.84 1.49-3.33 3.33-3.33h.67v-3c0-1.66 1.34-3 3-3h1.17.01c.41 1.17 1.51 2 2.82 2h3c1.19 0 2.28-.42 3.14-1.11.53.55.86 1.29.86 2.11v2z" fill="#f0d0b4"/></g><g><path d="m13.98 42h10.04c-.95 3.94-2.65 7.68-5.02 11-2.37-3.32-4.07-7.06-5.02-11z" fill="#e6e9ed"/></g><g><path d="m3 54h6v8h-6z" fill="#f0d0b4"/></g></g><g><path d="m60 43h-10.026c-.914-1.207-2.348-2-3.974-2s-3.061.793-3.974 2h-6.25c-2.476-4.196-6.755-7.073-11.599-7.719l-1.177-.157v-2.124h3c2.757 0 5-2.243 5-5v-2.382l.216-.107c1.1-.552 1.784-1.657 1.784-2.888 0-.605-.177-1.192-.513-1.696l-1.487-2.23v-1.697c0-.712-.2-1.39-.548-1.992.959-1.063 1.548-2.466 1.548-4.008 0-3.309-2.691-6-6-6h-3.333c-3.115 0-6.012.924-8.454 2.498-.938-.356-1.919-.547-2.931-.547-4.567-.001-8.282 3.714-8.282 8.28v8.204c0 .792-.232 1.561-.672 2.22l-.323.485c-.657.985-1.005 2.132-1.005 3.319 0 1.873.895 3.662 2.393 4.785l.807.606c.501.376.8.974.8 1.6s-.299 1.224-.798 1.599l-1.251.938c-1.222.916-1.951 2.375-1.951 3.964 0 1.508.699 2.945 1.869 3.888-.561 1.739-.869 3.587-.869 5.503v10.658h35.469.531 16.531c2.472 0 4.6-1.846 4.95-4.293l1.408-9.857c1.218-.381 2.111-1.507 2.111-2.85 0-1.654-1.346-3-3-3zm-9.364 4.849 4.164 5.552c.163.217.228.473.19.74-.039.269-.174.496-.389.658-.432.322-1.082.228-1.402-.201l-3.748-4.997c.512-.489.918-1.084 1.185-1.752zm-4.636-4.849c1.654 0 3 1.346 3 3s-1.346 3-3 3-3-1.346-3-3 1.346-3 3-3zm-14 4c-.551 0-1-.448-1-1s.449-1 1-1h9.001l-1.5 2zm9.364.848c.267.668.673 1.263 1.184 1.753l-3.748 4.999c-.319.426-.974.521-1.399.201-.217-.163-.353-.391-.391-.659s.027-.523.19-.741zm-7.946-4.848h-1.418c-1.654 0-3 1.346-3 3 0 1.343.893 2.469 2.112 2.85l1.408 9.857c.123.859.474 1.636.973 2.293h-13.493v-7.699c3.234-4.628 5.225-10.027 5.759-15.65 3.083.851 5.799 2.741 7.659 5.349zm-25.418 3v7h-4v-.658c0-5.968 3.282-11.235 8.337-13.916.637 5.348 2.573 10.474 5.663 14.891v7.683h-8v-15zm11 5.195c-1.637-2.541-2.89-5.302-3.717-8.195h7.434c-.827 2.893-2.08 5.655-3.717 8.195zm12-28.572c0 .468-.26.889-.679 1.099l-1.321.66v3.618c0 1.654-1.346 3-3 3h-5v5.876l2.791.371-.009.094c-.112 1.234-.308 2.454-.567 3.658h-8.432c-.242-1.126-.423-2.267-.537-3.419.641-.238 1.296-.45 1.978-.607l.776-.177v-9.296l-3.066-2.3c-.585-.438-.934-1.137-.934-1.867 0-1.286 1.047-2.333 2.333-2.333h1.667v-4c0-1.103.897-2 2-2h.56c.694 1.19 1.967 2 3.437 2h3.003c1.035 0 2.01-.264 2.86-.727.09.229.14.474.14.727v2.303l1.823 2.733c.115.174.177.377.177.587zm-5-15.623c2.206 0 4 1.794 4 4s-1.794 4-4 4h-3.003c-1.101 0-1.997-.903-1.997-2.09 0-1.054.857-1.91 1.911-1.91h.089l-.089-2c-2.157 0-3.911 1.754-3.911 3.985 0 .005.001.01.001.015h-.001c-2.206 0-4 1.794-4 4v2.013c-2.234.171-4 2.043-4 4.32 0 1.356.648 2.652 1.733 3.467l2.267 1.7v3.5l-.533-.4c-3.424-2.568-5.467-6.655-5.467-10.933 0-7.536 6.131-13.667 13.667-13.667zm-23 35.89c0-.901.431-1.763 1.15-2.303l1.251-.938c1.001-.752 1.599-1.948 1.599-3.199 0-1.253-.598-2.449-1.6-3.2l-.807-.605c-.997-.749-1.593-1.939-1.593-3.186 0-.79.231-1.554.669-2.21l.323-.484c.659-.99 1.008-2.141 1.008-3.329v-8.204c0-3.464 2.818-6.281 6.281-6.281.316 0 .627.032.935.078-3.193 2.869-5.216 7.017-5.216 11.638 0 4.904 2.343 9.59 6.267 12.533l1.733 1.3v.723c-5.136 1.424-9.196 4.991-11.336 9.597-.421-.53-.664-1.201-.664-1.93zm1 12.11h4v6h-4zm53.501 3.424c-.187 1.311-1.226 2.328-2.501 2.533v-1.957h-2v2h-2v-4h-2v4h-2v-8h-2v8h-2v-4h-2v4h-2v-2h-2v1.957c-1.275-.205-2.314-1.222-2.501-2.533l-1.346-9.424h4.848l-2.4 3.2c-.482.641-.685 1.431-.571 2.225.113.793.529 1.494 1.171 1.977.524.391 1.145.598 1.798.598.941 0 1.839-.449 2.402-1.202l3.848-5.131c.547.206 1.133.333 1.751.333s1.204-.127 1.751-.333l3.847 5.13c.564.754 1.462 1.203 2.403 1.203.652 0 1.274-.207 1.799-.6.641-.481 1.056-1.183 1.169-1.976.114-.794-.089-1.584-.57-2.224l-2.401-3.2h4.849zm2.499-11.424h-7.502l-1.5-2h9.002c.551 0 1 .448 1 1s-.449 1-1 1z"/><path d="m48 18.855v2.145h2v-2.145c1.155-.366 2-1.435 2-2.709 0-1.087-.604-2.065-1.578-2.553l-1.95-.975c-.291-.145-.472-.438-.472-.764 0-.47.383-.854.854-.854h.292c.471 0 .854.384.854.854v1.146h2v-1.146c0-1.275-.845-2.344-2-2.709v-2.145h-2v2.145c-1.155.366-2 1.435-2 2.709 0 1.087.604 2.065 1.578 2.553l1.95.975c.291.145.472.438.472.764 0 .47-.383.854-.854.854h-.292c-.471 0-.854-.384-.854-.854v-1.146h-2v1.146c0 1.274.845 2.343 2 2.709z"/><path d="m36.444 21.053c.377 3.39 3.233 5.947 6.644 5.947h1.912v1.586c0 1.331 1.083 2.414 2.414 2.414.635 0 1.257-.258 1.707-.707l3.293-3.293h2.498c3.411 0 6.268-2.557 6.644-5.947l1.404-12.631c.026-.244.04-.491.04-.736 0-3.687-2.999-6.686-6.685-6.686h-14.63c-3.686 0-6.685 2.999-6.685 6.686 0 .245.014.492.041.737zm5.241-18.053h14.63c2.583 0 4.685 2.102 4.685 4.686 0 .173-.01.346-.028.517l-1.403 12.63c-.265 2.375-2.267 4.167-4.657 4.167h-3.326l-3.878 3.878c-.242.243-.708.046-.708-.292v-3.586h-3.912c-2.391 0-4.393-1.792-4.657-4.168l-1.402-12.629c-.019-.172-.029-.345-.029-.517 0-2.584 2.102-4.686 4.685-4.686z"/><path d="m41 36c0 1.654 1.346 3 3 3s3-1.346 3-3-1.346-3-3-3-3 1.346-3 3zm4 0c0 .552-.449 1-1 1s-1-.448-1-1 .449-1 1-1 1 .448 1 1z"/><path d="m52 33c-1.654 0-3 1.346-3 3s1.346 3 3 3 3-1.346 3-3-1.346-3-3-3zm0 4c-.551 0-1-.448-1-1s.449-1 1-1 1 .448 1 1-.449 1-1 1z"/><path d="m60 33c-1.654 0-3 1.346-3 3s1.346 3 3 3 3-1.346 3-3-1.346-3-3-3zm0 4c-.551 0-1-.448-1-1s.449-1 1-1 1 .448 1 1-.449 1-1 1z"/></g></g></svg>